<svg width="900" height="900" viewBox="0 0 900 900" fill="none" xmlns="http://www.w3.org/2000/svg">
<path d="M449.524 377.953C449.524 261 539.943 120.761 680.525 150C589.052 113.998 449.524 0 449.524 0V377.953Z" fill="#048639"/>
<path d="M449.526 377.953C449.526 261 359.107 120.761 218.525 150C309.998 113.998 449.526 0 449.526 0V377.953Z" fill="#048639"/>
<path d="M878.086 381C836.429 551.069 772.221 520.988 675.292 504.421C525.323 478.789 468.35 583.073 449.525 593V899.284C668.591 784.87 816.525 632.5 878.086 381Z" fill="#03A0B7"/>
<path d="M20.9644 381C62.621 551.069 126.829 520.988 223.758 504.421C373.727 478.789 430.7 583.073 449.525 593V899.284C230.459 784.87 82.5254 632.5 20.9644 381Z" fill="#03A0B7"/>
<path d="M449.525 377.953C449.525 261.058 539.854 120.9 680.316 149.957C818.33 189.325 864.196 144.325 877.595 152.505C889.101 159.53 919.236 213 878.086 381C840.239 535.516 783.776 524.816 701.071 509.142C692.746 507.564 684.156 505.936 675.292 504.421C553.761 483.65 493.301 548.195 464.723 578.703C458.036 585.842 453.094 591.117 449.525 593V377.953Z" fill="#CEDC73"/>
<path d="M449.525 377.953C449.525 261.058 359.196 120.9 218.734 149.957C80.7196 189.325 34.8539 144.325 21.4549 152.505C9.94861 159.53 -20.1855 213 20.9642 381C58.8114 535.516 115.274 524.816 197.979 509.142C206.304 507.564 214.894 505.936 223.758 504.421C345.289 483.65 405.749 548.195 434.327 578.703C441.014 585.842 445.956 591.117 449.525 593V377.953Z" fill="#CEDC73"/>
<path fill-rule="evenodd" clip-rule="evenodd" d="M680.316 149.874L680.093 149.828C588.77 113.698 450.005 0.388654 449.53 0.000997153L449.529 0C449.054 0.387642 310.299 113.689 218.977 149.824L218.734 149.874C119.36 178.22 67.7595 162.827 41.6536 155.039C31.5026 152.011 25.2063 150.132 21.4549 152.423C13.5131 157.271 -3.30274 184.246 0.571055 255.733C3.30277 212.99 15.1634 195.264 21.4549 191.423C25.2063 189.132 31.5026 191.011 41.6536 194.039C67.7595 201.827 119.36 217.22 218.734 188.874L218.977 188.824C310.299 152.689 449.054 39.3876 449.529 39L449.53 39.001C450.005 39.3887 588.77 152.698 680.093 188.828L680.316 188.874C779.69 217.22 831.291 201.827 857.396 194.039C859.459 193.424 861.362 192.856 863.117 192.361C869.311 226.324 868.992 284.851 845.561 380.513C785.511 625.84 643.275 776.844 433 890.304C438.29 893.158 443.624 895.989 449 898.797C668.066 784.383 816 632.013 877.561 380.513C890.852 326.249 896.707 283.934 898.154 251.273C898.273 252.729 898.382 254.215 898.479 255.733C902.24 186.334 886.502 158.885 878.313 152.905C877.879 152.553 877.464 152.258 877.07 152.018C873.319 149.728 867.023 151.606 856.872 154.634C854.718 155.277 852.39 155.971 849.876 156.689C849.99 156.838 850.104 156.99 850.219 157.145C822.229 165.116 771.293 175.825 680.316 149.874Z" fill="white" fill-opacity="0.3"/>
</svg>
